<?xml version="1.0" encoding="UTF-8"?>
<svg version="1.1" viewBox="0 0 180 180" xmlns="http://www.w3.org/2000/svg" xmlns:xlink="http://www.w3.org/1999/xlink">
<defs>
<linearGradient id="a" x1="137.31" x2="137.31" y1="66.193" y2="205.41" gradientUnits="userSpaceOnUse">
<stop stop-color="#3f51b5" offset="0"/>
<stop stop-color="#1a2669" offset="1"/>
</linearGradient>
</defs>
<rect y="-1.6925e-6" width="180" height="180" fill="#b56b51" stroke-width="0"/>
<g transform="translate(-94.301 -54.984)">
<g transform="translate(15.702 7.9269)" stroke-width="0">
<path d="m106.53 105.19s-1.4682 0.52258-1.7668 0.94561c-0.29861 0.42304-0.84607 1.7419-0.0498 3.4341 0.79631 1.6922 2.588 4.9769 2.9862 5.4497 0.39815 0.47281 1.4433 1.9659 3.5336 1.8664 2.0903-0.0995 8.411-0.67189 8.411-0.67189s2.0141-0.32337 2.0141 1.1899 0.52788 9.2907 0.66865 10.03c0.14077 0.73904 0.35192 1.83 0.56307 0.56308 0.21115-1.2669 1.2317-3.7304 1.5484-4.1527 0.31673-0.42231 0.77423-1.1965 0.70385 0.52788-0.0704 1.7244 0.0704 8.1998 0.17596 9.6778 0.10557 1.4781 0.8798 7.7071 1.091 8.4813s0.4575 2.4986 0.70384 0.24634c0.24635-2.2523 1.0206-6.0882 1.1613-6.6161s0.77423-3.3432 0.84461-0.38711c0.0704 2.9561 1.6892 11.473 2.1819 13.021s1.1613 3.2025 1.4429 3.6952c0.28153 0.49269 0.70384 1.654 0.84461 0.0352s-0.0704-4.3286 0.91499-2.1115c0.98538 2.2171 2.0411 4.0119 2.0411 4.0119s0.49269 0.49269 0.49269 2.2523c0 1.7596 0.28154 42.442 0.28154 42.442s0.10558 2.2523-1.2317 2.2171c-1.3373-0.0352-3.7304-0.21115-4.2582-0.10558-0.52788 0.10558-2.0763 0.24635-2.6746 2.006-0.59826 1.7596-1.2317 3.9767-1.2317 3.9767l13.584 0.49269 1.2802-4.6457s0.0498 0.19907 0.29862-1.5926c0.24884-1.7917 6.1714-33.395 6.1714-33.395s0.0995-0.94561 1.1447-0.59723c1.0452 0.34839 9.5312 7.3085 10.377 7.4578-2.0164-66.363-21.231-72.843-53.001-70.035 0 0-0.45083-0.0399-1.2481 0.29118z" fill="#1a2669"/>
<path d="m180.01 201.22c-2.0405-0.0995-4.9769-0.44792-6.0221-0.0995-1.0452 0.34838-1.9908 0.54746-2.7373 1.941-0.74654 1.3935-1.294 3.2848-1.294 3.2848h-5.9133l2.5382-4.4294s0.29861-0.79631 0.19907-2.0405c-0.0995-1.2442 0.48133-11.824 0.48133-11.824s0.27373-1.2691 0.84608-0.647c1.3713 1.941 12.506 13.787 11.902 13.814zm-69.29-97.702-2.9459 1.3811s1.1324-9e-3 1.7297 0.43843c0.59723 0.44792 3.1688 2.366 3.1688 2.366s1.3935 1.3935 2.6875 1.3935 10.85 0.29861 10.85 0.29861 2.1898 0.29862 1.8415-0.59723c-0.34839-0.89584-1.5428-2.0405-1.5428-2.0405s-0.39815-0.54746 0.29862-0.34839c0.69677 0.19908 7.7142 1.4931 10.85 3.9815 3.1355 2.4885 5.2755 6.2212 5.823 7.8635s0.74654 2.2396-1.294 1.3438c-2.0405-0.89584-6.3704-0.19907-6.3704-0.19907s-0.99538 0.14931-0.94561 1.7917c0.0498 1.6424-0.44792 6.7686-0.49769 7.3161-0.0498 0.54746 0.0382 1.3438-0.79631-0.44792-0.8345-1.7917-0.90974-2.1446-2.0405-4.3797s-1.7727-2.698-1.7917 0.19908c-0.019 2.8971 1.0983 10.057 2.0405 13.537 1.1192 4.1343 4.9769 11.696 6.47 13.886s4.4792 5.9225 3.9318 1.7419-0.74653-10.103 0.84608-5.6239 5.3675 14.71 7.565 6.349c2.1974-8.3611 2.2197-4.4691 3.2295 2.0703 1.0098 6.5394 5.8376 42.594 5.8376 42.594s0.64699 2.4387-1.7917 2.2894c-2.4387-0.14931-4.7778-0.74654-6.0718 0.24884-1.294 0.99538-2.5382 3.0857-2.6875 4.0811s-0.19908 1.4433-0.19908 1.4433l-40.322 0.0498s-0.89585 0.19907-0.89585 0.84607 0.59723 0.69677 1.4433 0.84608c0.84607 0.1493 6.0221 0.89584 7.6147 0.89584 1.5926 0 96.502-0.0498 96.502-0.0498s5.2258-0.14931 8.0128-1.1447 6.1216-2.4387 6.47-2.6875c0.34838-0.24885 0.69677-0.89585-0.44792-0.89585s-2.4885 0.24885-1.5926-0.647c0.89585-0.89584 4.1806-4.4294 5.0267-6.6691 0.84607-2.2396 2.3889-6.9179 2.1401-9.8543-0.24885-2.9364-0.84608-6.4202-1.1447-7.117-0.29862-0.69677-0.79631-1.8912-1.3935-0.39816-0.59723 1.4931-0.59723 2.4387-1.3935-0.0995-0.79631-2.5382-3.6829-7.5649-4.7281-8.7594-1.0452-1.1945-3.8322-3.9815-5.0267-4.6285-1.1945-0.647-1.7917-1.0949-1.2442 1.1945s2.1898 8.1621 1.7917 11.646c-0.39816 3.4838-1.0949 7.5649-2.8866 9.9538s-4.7281 4.4792-6.2212 4.9769c-1.4931 0.4977-2.8368 1.3438-2.7373-1.1945 0.0995-2.5382-0.0995-10.153-0.647-13.537-0.54746-3.3843-3.0359-12.99-5.3253-18.415s-7.4156-14.781-11.397-20.156-11.049-11.497-11.994-12.193c-0.94561-0.69677-2.1898-1.1447-0.84607-1.3438 1.3438-0.19907 3.6829-0.99538 4.4294-1.4433s1.7917-0.94561-0.59723-0.99538c-2.3889-0.0498-8.2119-1.5428-10.252-2.4387-2.0405-0.89585-5.2258-2.9862-5.2258-2.9862s-1.6424-1.0452 0.14931-0.89584c1.7917 0.1493 4.4294 0.29861 4.4294 0.29861s2.3392 0.0995 0.14931-1.1447c-2.1898-1.2442-14.781-8.5603-14.781-8.5603s-1.941-0.79631-0.0498-0.79631c1.8912 0 5.3751 0.0498 5.3751 0.0498s2.2396 0.0498-0.0498-0.99538c-2.2894-1.0452-9.1078-4.7778-10.004-5.4746-0.89585-0.69676-1.0949-0.99538 0.29861-0.89584 1.3935 0.0995 3.1852 0.19908 3.1852 0.19908s1.294 0.0995-0.0498-0.89585c-1.3438-0.99538-8.7594-6.9677-8.7594-6.9677s-0.74654-0.34838-0.59723-1.5926c0.14931-1.2442 0.84607-6.2709 0.19907-9.8045-0.64699-3.5336-3.8322-12.99-5.5244-15.628s-2.6875 0.04977-2.6875 0.04977-2.0405 3.9318-3.0359 7.7142c-0.99538 3.7825-1.5926 8.1124-1.6922 9.058-0.0995 0.94561 0.24884 1.8912-0.54746 2.0405-0.79631 0.14931-3.5336 0.59723-3.5336 0.59723s-0.94561 0.49769-1.7917-0.99538c-0.84607-1.4931-4.4294-7.0672-5.2755-8.411-0.84607-1.3438-3.6829-5.1262-4.4792-6.1216s-1.6922-1.5926-1.7419 0.49769c-0.0498 2.0903 0.29862 8.2119 0.647 11.447 0.34838 3.235 1.4433 7.9631 1.4433 7.9631s0.647 0.59723-0.44792 1.941c-1.0949 1.3438-2.9862 4.9769-2.9862 4.9769s-0.3698 0.30556 0 1.8912c0.40849 1.7516 0.69677 2.3391-0.0498 2.7871-0.74653 0.44792-3.0973 1.9361-3.0973 1.9361z" fill="url(#a)"/>
<path d="m113.82 101.58s3.9594-2.4851 4.3344-2.9226 1.5864-0.86336-0.5-1.0625c-2.0275-0.19351-3.7846-0.69317-3.7846-0.69317s-0.38366 0.17396 0 1.8912c0.38366 1.7173 0.63803 2.0892-0.0498 2.7871zm16.85-4.9641c1.3594 0.01015 2.7861 0.26371 4.1958 0.5003s3.5011 0.50304 0.89683 1.4379-4.3152 2.4973-6.1938 3.069-3.1227 0.52795-4.9109-0.60396c-1.7882-1.1319-1.6757-1.7385 0.5927-2.944 2.2684-1.2056 3.8969-1.5001 5.4195-1.4592z" fill="#1a2669"/>
</g>
</g>
</svg>
