<?xml version="1.0" encoding="UTF-8"?>
<svg version="1.1" viewBox="0 0 151.95 223.27" xmlns="http://www.w3.org/2000/svg" xmlns:xlink="http://www.w3.org/1999/xlink">
<defs>
<linearGradient id="a" x1="137.31" x2="137.31" y1="66.193" y2="205.41" gradientUnits="userSpaceOnUse">
<stop stop-color="#3f51b5" offset="0"/>
<stop stop-color="#1a2669" offset="1"/>
</linearGradient>
</defs>
<g transform="translate(5 5)">
<rect x="-5" y="-5" width="151.95" height="223.27" fill="#b56b51" stroke-width="0"/>
</g>
<g transform="translate(-91.964 -54.984)">
<path d="m106.53 105.19s-1.4682 0.52258-1.7668 0.94561c-0.29861 0.42304-0.84607 1.7419-0.0498 3.4341 0.79631 1.6922 2.588 4.9769 2.9862 5.4497 0.39815 0.47281 1.4433 1.9659 3.5336 1.8664 2.0903-0.0995 8.411-0.67189 8.411-0.67189s2.0141-0.32337 2.0141 1.1899 0.52788 9.2907 0.66865 10.03c0.14077 0.73904 0.35192 1.83 0.56307 0.56308 0.21115-1.2669 1.2317-3.7304 1.5484-4.1527 0.31673-0.42231 0.77423-1.1965 0.70385 0.52788-0.0704 1.7244 0.0704 8.1998 0.17596 9.6778 0.10557 1.4781 0.8798 7.7071 1.091 8.4813s0.4575 2.4986 0.70384 0.24634c0.24635-2.2523 1.0206-6.0882 1.1613-6.6161s0.77423-3.3432 0.84461-0.38711c0.0704 2.9561 1.6892 11.473 2.1819 13.021s1.1613 3.2025 1.4429 3.6952c0.28153 0.49269 0.70384 1.654 0.84461 0.0352s-0.0704-4.3286 0.91499-2.1115c0.98538 2.2171 2.0411 4.0119 2.0411 4.0119s0.49269 0.49269 0.49269 2.2523c0 1.7596 0.28154 42.442 0.28154 42.442s0.10558 2.2523-1.2317 2.2171c-1.3373-0.0352-3.7304-0.21115-4.2582-0.10558-0.52788 0.10558-2.0763 0.24635-2.6746 2.006-0.59826 1.7596-1.2317 3.9767-1.2317 3.9767l13.584 0.49269 1.2802-4.6457s0.0498 0.19907 0.29862-1.5926c0.24884-1.7917 6.1714-33.395 6.1714-33.395s0.0995-0.94561 1.1447-0.59723c1.0452 0.34839 9.5312 7.3085 10.377 7.4578-2.0164-66.363-21.231-72.843-53.001-70.035 0 0-0.45083-0.0399-1.2481 0.29118z" fill="#1a2669" stroke-width="0"/>
</g>
<g transform="translate(-91.964 -54.984)">
<path d="m180.01 201.22c-2.0405-0.0995-4.9769-0.44792-6.0221-0.0995-1.0452 0.34838-1.9908 0.54746-2.7373 1.941-0.74654 1.3935-1.294 3.2848-1.294 3.2848h-5.9133l2.5382-4.4294s0.29861-0.79631 0.19907-2.0405c-0.0995-1.2442 0.48133-11.824 0.48133-11.824s0.27373-1.2691 0.84608-0.647c1.3713 1.941 12.506 13.787 11.902 13.814zm-69.29-97.702-2.9459 1.3811s1.1324-9e-3 1.7297 0.43843c0.59723 0.44792 3.1688 2.366 3.1688 2.366s1.3935 1.3935 2.6875 1.3935 10.85 0.29861 10.85 0.29861 2.1898 0.29862 1.8415-0.59723c-0.34839-0.89584-1.5428-2.0405-1.5428-2.0405s-0.39815-0.54746 0.29862-0.34839c0.69677 0.19908 7.7142 1.4931 10.85 3.9815 3.1355 2.4885 5.2755 6.2212 5.823 7.8635s0.74654 2.2396-1.294 1.3438c-2.0405-0.89584-6.3704-0.19907-6.3704-0.19907s-0.99538 0.14931-0.94561 1.7917c0.0498 1.6424-0.44792 6.7686-0.49769 7.3161-0.0498 0.54746 0.0382 1.3438-0.79631-0.44792-0.8345-1.7917-0.90974-2.1446-2.0405-4.3797s-1.7727-2.698-1.7917 0.19908c-0.019 2.8971 1.0983 10.057 2.0405 13.537 1.1192 4.1343 4.9769 11.696 6.47 13.886s4.4792 5.9225 3.9318 1.7419-0.74653-10.103 0.84608-5.6239 5.3675 14.71 7.565 6.349c2.1974-8.3611 2.2197-4.4691 3.2295 2.0703 1.0098 6.5394 5.8376 42.594 5.8376 42.594s0.64699 2.4387-1.7917 2.2894c-2.4387-0.14931-4.7778-0.74654-6.0718 0.24884-1.294 0.99538-2.5382 3.0857-2.6875 4.0811s-0.19908 1.4433-0.19908 1.4433l-40.322 0.0498s-0.89585 0.19907-0.89585 0.84607 0.59723 0.69677 1.4433 0.84608c0.84607 0.1493 6.0221 0.89584 7.6147 0.89584 1.5926 0 96.502-0.0498 96.502-0.0498s5.2258-0.14931 8.0128-1.1447 6.1216-2.4387 6.47-2.6875c0.34838-0.24885 0.69677-0.89585-0.44792-0.89585s-2.4885 0.24885-1.5926-0.647c0.89585-0.89584 4.1806-4.4294 5.0267-6.6691 0.84607-2.2396 2.3889-6.9179 2.1401-9.8543-0.24885-2.9364-0.84608-6.4202-1.1447-7.117-0.29862-0.69677-0.79631-1.8912-1.3935-0.39816-0.59723 1.4931-0.59723 2.4387-1.3935-0.0995-0.79631-2.5382-3.6829-7.5649-4.7281-8.7594-1.0452-1.1945-3.8322-3.9815-5.0267-4.6285-1.1945-0.647-1.7917-1.0949-1.2442 1.1945s2.1898 8.1621 1.7917 11.646c-0.39816 3.4838-1.0949 7.5649-2.8866 9.9538s-4.7281 4.4792-6.2212 4.9769c-1.4931 0.4977-2.8368 1.3438-2.7373-1.1945 0.0995-2.5382-0.0995-10.153-0.647-13.537-0.54746-3.3843-3.0359-12.99-5.3253-18.415s-7.4156-14.781-11.397-20.156-11.049-11.497-11.994-12.193c-0.94561-0.69677-2.1898-1.1447-0.84607-1.3438 1.3438-0.19907 3.6829-0.99538 4.4294-1.4433s1.7917-0.94561-0.59723-0.99538c-2.3889-0.0498-8.2119-1.5428-10.252-2.4387-2.0405-0.89585-5.2258-2.9862-5.2258-2.9862s-1.6424-1.0452 0.14931-0.89584c1.7917 0.1493 4.4294 0.29861 4.4294 0.29861s2.3392 0.0995 0.14931-1.1447c-2.1898-1.2442-14.781-8.5603-14.781-8.5603s-1.941-0.79631-0.0498-0.79631c1.8912 0 5.3751 0.0498 5.3751 0.0498s2.2396 0.0498-0.0498-0.99538c-2.2894-1.0452-9.1078-4.7778-10.004-5.4746-0.89585-0.69676-1.0949-0.99538 0.29861-0.89584 1.3935 0.0995 3.1852 0.19908 3.1852 0.19908s1.294 0.0995-0.0498-0.89585c-1.3438-0.99538-8.7594-6.9677-8.7594-6.9677s-0.74654-0.34838-0.59723-1.5926c0.14931-1.2442 0.84607-6.2709 0.19907-9.8045-0.64699-3.5336-3.8322-12.99-5.5244-15.628s-2.6875 0.04977-2.6875 0.04977-2.0405 3.9318-3.0359 7.7142c-0.99538 3.7825-1.5926 8.1124-1.6922 9.058-0.0995 0.94561 0.24884 1.8912-0.54746 2.0405-0.79631 0.14931-3.5336 0.59723-3.5336 0.59723s-0.94561 0.49769-1.7917-0.99538c-0.84607-1.4931-4.4294-7.0672-5.2755-8.411-0.84607-1.3438-3.6829-5.1262-4.4792-6.1216s-1.6922-1.5926-1.7419 0.49769c-0.0498 2.0903 0.29862 8.2119 0.647 11.447 0.34838 3.235 1.4433 7.9631 1.4433 7.9631s0.647 0.59723-0.44792 1.941c-1.0949 1.3438-2.9862 4.9769-2.9862 4.9769s-0.3698 0.30556 0 1.8912c0.40849 1.7516 0.69677 2.3391-0.0498 2.7871-0.74653 0.44792-3.0973 1.9361-3.0973 1.9361z" fill="url(#a)" stroke-width="0"/>
</g>
<g transform="translate(-91.964 -54.984)">
<path d="m101.96 220.91v30.094h7.8145v-12.023h11.709v-6.0234h-11.709v-6.0234h19.523v-6.0234h-27.338zm31.193 0v30.094h26.766v-6.0215h-18.951v-6.002h12.824v-6.0234h-12.824v-6.0234h18.951v-6.0234h-26.766zm47.258 0c-6.9857-0.22432-15.438 4.303-15.602 12.047v18.047h7.7871v-6.0215h15.629v6.0215h7.8144c-0.10039-6.6225 0.20974-13.27-0.17209-19.876-1.4739-6.8074-9.039-10.294-15.457-10.218zm22.262 0v30.094h7.8144v-6.0215c2.9134-0.0143 5.8268-0.0287 8.7402-0.043 1.1348 2.0215 2.2695 4.043 3.4043 6.0644h8.3047c-1.4434-2.623-2.8867-5.2461-4.3301-7.8691 5.537-2.267 9.3992-9.3122 6.059-14.852-3.4855-6.1564-11.047-7.7891-17.612-7.3727-4.127 0-8.2539 1e-5 -12.381 2e-5zm-22.262 6.0234c4.0531-0.2354 8.5355 2.9861 7.8145 7.3768-0.19663 1.4503 0.38356 3.6774-0.27067 4.6701h-15.358c0.2846-3.4954-1.0909-7.8735 2.2871-10.283 1.5698-1.193 3.569-1.7642 5.5273-1.7637zm30.076 0c4.4559 0.30801 9.4168-1.001 13.316 1.7637 3.8378 2.4632 2.3244 8.3662-1.7926 9.558-3.6957 1.2662-7.6836 0.5252-11.524 0.72516v-12.047z" fill="#1a2669"/>
</g>
<g transform="translate(-91.964 -54.984)">
<path d="m195.98 255.91c-3.651-0.0767-8.341 2.0255-8.5 6.168 0.16168 4.1396 4.8455 6.257 8.5 6.1777 3.6612 0.0855 8.3151-2.0406 8.4883-6.1777-0.12136-4.1597-4.8845-6.2287-8.4883-6.168zm-15.625 0.0156c-3.6429-0.0773-8.3101 2.0253-8.4766 6.1523 0.15305 4.139 4.8237 6.2585 8.4766 6.1777 1.794-0.14048 4.695-0.24623 5.4863-1.9262v-4.2516h-3.1719v3.3984c-2.7493 1.1028-7.2312 0.0199-7.5273-3.3984 0.29009-3.3003 4.5559-4.4074 7.2637-3.4629 1.4982 1.379 2.2907 0.38249 3.187-0.92155-5e-3 -1.3098-3.8992-1.7267-5.2378-1.7679zm-51.777 0.13477v11.938h3.2891v-11.938h-3.2891zm6.3359 0v11.938h3.2871v-7.8594c2.1113 2.6198 4.2227 5.2396 6.334 7.8594h3.5176v-11.938h-3.2891v7.8672c-2.1113-2.6224-4.2227-5.2448-6.334-7.8672h-3.5156zm16.186 0v11.938c3.7684-0.10443 7.9916 0.61368 11.115-2.0295 2.4927-1.7333 2.7315-5.657 0.33371-7.5798-3.1165-2.9876-7.5414-2.2204-11.449-2.3282zm15.338 0v11.938h3.2871v-11.938h-3.2871zm29.543 2.2226c2.5713-0.19656 6.1368 1.9824 4.9909 4.9182-1.9238 3.6978-8.5655 3.5939-10.123-0.36303-0.7284-2.8926 2.7104-4.6552 5.1324-4.5551zm-41.57 0.16602c2.4268-0.14521 5.5505 0.21667 6.4655 2.8619 0.65678 2.9039-2.846 4.5743-5.2902 4.2983-1.3769 0.42129-1.2468-0.66446-1.1754-1.6915v-5.4686z" fill="#1a2669"/>
</g>
<g transform="translate(-91.964 -54.984)">
<path d="m113.82 101.58s3.9594-2.4851 4.3344-2.9226 1.5864-0.86336-0.5-1.0625c-2.0275-0.19351-3.7846-0.69317-3.7846-0.69317s-0.38366 0.17396 0 1.8912c0.38366 1.7173 0.63803 2.0892-0.0498 2.7871zm16.85-4.9641c1.3594 0.01015 2.7861 0.26371 4.1958 0.5003s3.5011 0.50304 0.89683 1.4379-4.3152 2.4973-6.1938 3.069-3.1227 0.52795-4.9109-0.60396c-1.7882-1.1319-1.6757-1.7385 0.5927-2.944 2.2684-1.2056 3.8969-1.5001 5.4195-1.4592z" fill="#1a2669" stroke-width="0"/>
</g>
</svg>
